<svg width="44" height="44" viewBox="0 0 44 44" fill="none" xmlns="http://www.w3.org/2000/svg">
<circle cx="22" cy="22" r="22" fill="black"/>
<path d="M29.1702 14.2559L28.8533 16.7119C28.0787 16.6591 27.4801 16.7999 27.0575 17.1344C26.635 17.4689 26.3533 17.9355 26.2125 18.534C26.0716 19.1326 26.0452 19.8104 26.1332 20.5675H29.1702V26.9319H23.334V20.0393C23.334 17.9619 23.8269 16.395 24.8128 15.3386C25.8163 14.2647 27.2688 13.9038 29.1702 14.2559ZM21.0364 14.2559L20.7195 16.7119C19.9449 16.6591 19.3463 16.7999 18.9238 17.1344C18.5012 17.4689 18.2195 17.9355 18.0787 18.534C17.9379 19.1326 17.9114 19.8104 17.9995 20.5675H21.0364V26.9319H15.2002V20.0393C15.2002 17.9619 15.6932 16.395 16.6791 15.3386C17.6826 14.2647 19.135 13.9038 21.0364 14.2559Z" fill="white"/>
</svg>
