<svg width="21" height="18" viewBox="0 0 21 18" fill="none" xmlns="http://www.w3.org/2000/svg">
<path d="M18.9189 4.9275C19.7322 4.35 20.4164 3.62917 20.9739 2.79917V2.79833C20.2297 3.12417 19.438 3.34083 18.6114 3.44583C19.4614 2.93833 20.1105 2.14083 20.4155 1.18C19.623 1.6525 18.748 1.98583 17.8155 2.1725C17.063 1.37083 15.9905 0.875 14.8205 0.875C12.5505 0.875 10.723 2.7175 10.723 4.97583C10.723 5.30083 10.7505 5.61333 10.818 5.91083C7.40971 5.74417 4.39304 4.11083 2.36638 1.62167C2.01304 2.23583 1.80471 2.93833 1.80471 3.69417C1.80471 5.11417 2.53554 6.3725 3.62638 7.10167C2.96721 7.08917 2.32138 6.8975 1.77388 6.59667V6.64167C1.77388 8.63417 3.19471 10.2892 5.05888 10.6708C4.72471 10.7625 4.36138 10.8058 3.98388 10.8058C3.72138 10.8058 3.45638 10.7908 3.20804 10.7358C3.73888 12.3592 5.24721 13.5533 7.03888 13.5925C5.64388 14.6833 3.87221 15.3408 1.95471 15.3408C1.61888 15.3408 1.29638 15.3258 0.973877 15.285C2.79054 16.4558 4.94221 17.125 7.26388 17.125C14.4997 17.125 19.2155 11.0883 18.9189 4.9275Z" fill="#3734A9"/>
</svg>
